#!OML:ASF E:\Steps\Project 1\Capture day 1\Session 2\Subject.ASF
:FULLY-SPECIFIED
:DEGREES
300
root 11.6551 15.5273 20.0434 -153.673 -17.4864 166.301
lowerback -18.0706 0.307125 -3.93453
upperback 2.28246 1.51376 -2.53259
thorax 12.7327 0.49364 -0.159242
lowerneck -2.89536 2.70617 0.443074
upperneck 17.2662 3.13097 -1.26585
head 5.70971 1.18236 -0.318938
rclavicle -8.74653e-015 -1.43125e-014
rhumerus -24.9533 -9.61901 -77.8784
rradius 38.2025
rwrist -3.16369
rhand -9.49137 -53.3148
rfingers 7.12502
rthumb 16.4734 -82.6354
lclavicle -8.74653e-015 -1.43125e-014
lhumerus -33.775 1.13094 74.8912
lradius 28.4843
lwrist -0.200443
lhand -19.8055 -15.4709
lfingers 7.12502
lthumb 6.52756 14.4085
rfemur -12.4086 5.12882 -4.97251
rtibia 24.1248
rfoot -36.5851 -24.4607
rtoes -30.6085
lfemur -63.2481 0.295009 0.986237
ltibia 43.7546
lfoot -3.50848 -5.86241
ltoes -15.9734
301
root 11.5414 15.5054 20.0128 -153.522 -17.5593 166.458
lowerback -17.4724 0.313612 -4.14043
upperback 2.20051 1.5322 -2.63524
thorax 12.2848 0.497639 -0.154003
lowerneck -2.61814 2.2888 0.470571
upperneck 16.8118 2.51083 -0.859872
head 5.50936 0.921882 -0.235354
rclavicle -7.95139e-015 3.18055e-015
rhumerus -25.1674 -9.97528 -78.0312
rradius 38.6084
rwrist -3.36944
rhand -9.44956 -52.6633
rfingers 7.12502
rthumb 16.5136 -81.9805
lclavicle -7.95139e-015 3.18055e-015
lhumerus -33.6663 0.0635329 74.775
lradius 28.6768
lwrist 0.0886001
lhand -20.0577 -15.6137
lfingers 7.12502
lthumb 6.28416 14.2731
rfemur -12.1653 5.21999 -5.1566
rtibia 23.8616
rfoot -36.1806 -24.706
rtoes -31.514
lfemur -64.0017 0.472021 0.65981
ltibia 44.9742
lfoot -3.56565 -6.73489
ltoes -13.3068
302
root 11.4306 15.4809 19.9804 -153.416 -17.7961 166.782
lowerback -16.9767 0.268232 -4.2287
upperback 2.20564 1.45956 -2.63128
thorax 11.9994 0.463066 -0.121588
lowerneck -2.67754 2.30026 0.588626
upperneck 16.6376 2.52745 -0.812876
head 5.4664 0.948786 -0.238536
rclavicle -5.00937e-014 -6.36111e-015
rhumerus -25.2601 -10.0855 -78.1729
rradius 38.9291
rwrist -3.87014
rhand -9.50334 -53.2562
rfingers 7.12502
rthumb 16.4619 -82.5777
lclavicle -5.00937e-014 -6.36111e-015
lhumerus -33.3938 -0.778861 74.6244
lradius 28.7958
lwrist -0.0104203
lhand -20.3827 -15.7958
lfingers 7.12502
lthumb 5.97035 14.1001
rfemur -11.8998 5.34339 -5.02746
rtibia 23.7479
rfoot -35.672 -25.1213
rtoes -32.6421
lfemur -64.9587 0.723018 0.489603
ltibia 46.3849
lfoot -3.34319 -7.50249
ltoes -14.7013
303
root 11.3228 15.4569 19.9479 -153.198 -17.9417 167.172
lowerback -16.7337 0.205023 -4.37441
upperback 2.29625 1.39106 -2.56088
thorax 11.9571 0.420227 0.0185748
lowerneck -2.73769 2.1098 0.605641
upperneck 16.2729 2.28624 -0.746021
head 5.36074 0.850775 -0.23306
rclavicle -1.27222e-014 6.04305e-014
rhumerus -24.851 -10.3882 -78.3049
rradius 38.9789
rwrist -4.21657
rhand -8.69494 -54.7363
rfingers 7.12502
rthumb 17.2401 -83.9916
lclavicle -1.27222e-014 6.04305e-014
lhumerus -32.8243 -1.1197 74.3551
lradius 28.8432
lwrist -0.501226
lhand -20.3459 -15.8521
lfingers 7.12502
lthumb 6.00583 14.0427
rfemur -11.8872 5.62402 -4.89015
rtibia 23.7376
rfoot -35.7027 -25.3025
rtoes -32.8876
lfemur -66.2534 1.04291 0.407499
ltibia 48.1472
lfoot -3.40621 -8.14202
ltoes -17.2306
304
root 11.2162 15.4358 19.9164 -152.835 -18.0341 167.517
lowerback -16.6181 0.137499 -4.62667
upperback 2.36715 1.34303 -2.47784
thorax 11.9647 0.377569 0.238991
lowerneck -2.64725 1.87837 0.528455
upperneck 15.5811 2.00467 -0.607724
head 5.12645 0.740244 -0.193072
rclavicle 4.73108e-014 -3.97569e-015
rhumerus -24.433 -10.7017 -78.458
rradius 39.266
rwrist -4.22969
rhand -11.1495 -50.9403
rfingers 7.12502
rthumb 14.8765 -80.3861
lclavicle 4.73108e-014 -3.97569e-015
lhumerus -32.108 -1.60099 74.1583
lradius 28.7302
lwrist -0.649307
lhand -19.9562 -16.5561
lfingers 7.12502
lthumb 6.38207 13.3277
rfemur -12.0325 5.88663 -4.87921
rtibia 23.5911
rfoot -35.6598 -25.6172
rtoes -33.4248
lfemur -67.7462 1.42576 0.214993
ltibia 50.0178
lfoot -3.61094 -8.6427
ltoes -19.5084
305
root 11.1088 15.4213 19.884 -152.564 -18.3032 167.757
lowerback -15.8795 0.0530196 -4.91134
upperback 2.11302 1.21336 -2.42696
thorax 11.2417 0.311418 0.422179
lowerneck -2.29018 1.50544 0.354953
upperneck 15.525 1.43323 -0.197304
head 5.04052 0.46949 -0.06944
rclavicle 4.53229e-014 2.06736e-014
rhumerus -25.0332 -10.4706 -78.5749
rradius 40.2309
rwrist -4.52624
rhand -9.86801 -52.5244
rfingers 7.12502
rthumb 16.1107 -81.8747
lclavicle 4.53229e-014 2.06736e-014
lhumerus -31.9823 -2.64413 74.1077
lradius 28.732
lwrist -0.365944
lhand -19.9026 -16.7838
lfingers 7.12502
lthumb 6.43382 13.0984
rfemur -11.8507 6.13967 -4.84118
rtibia 23.2793
rfoot -35.2201 -26.1852
rtoes -34.4619
lfemur -68.9484 1.60813 -0.100863
ltibia 51.4695
lfoot -3.6199 -9.05714
ltoes -20.6754
306
root 10.9909 15.4068 19.843 -152.322 -18.6301 167.95
lowerback -15.7449 -0.029586 -5.12551
upperback 2.22965 1.14211 -2.42936
thorax 11.2949 0.261838 0.520537
lowerneck -1.99838 1.30158 0.4499
upperneck 14.7332 1.18307 -0.0783706
head 4.74662 0.379453 -0.0616242
rclavicle 1.19271e-014 -4.92986e-014
rhumerus -25.1035 -10.656 -78.7445
rradius 41.1488
rwrist -4.67477
rhand -10.1111 -53.0298
rfingers 7.12502
rthumb 15.8767 -82.3989
lclavicle 1.19271e-014 -4.92986e-014
lhumerus -31.3594 -3.62776 74.061
lradius 28.8826
lwrist -0.133654
lhand -20.3494 -15.887
lfingers 7.12502
lthumb 6.00245 14.0079
rfemur -11.4189 6.35975 -4.79682
rtibia 22.8454
rfoot -34.6104 -26.6082
rtoes -35.664
lfemur -69.9909 1.65754 -0.51375
ltibia 52.7459
lfoot -3.76233 -9.50109
ltoes -22.6616
307
root 10.8665 15.3905 19.8001 -151.907 -18.8066 168.114
lowerback -15.9411 -0.0947454 -5.38216
upperback 2.38726 1.13077 -2.45798
thorax 11.5868 0.231596 0.629002
lowerneck -2.18876 1.33967 0.615626
upperneck 13.9105 1.26623 -0.0674157
head 5.03923 0.447493 -0.0869072
rclavicle -4.37326e-015 1.59028e-015
rhumerus -25.0396 -11.1056 -78.8377
rradius 41.623
rwrist -4.91696
rhand -10.507 -52.0161
rfingers 7.12502
rthumb 15.4953 -81.4151
lclavicle -4.37326e-015 1.59028e-015
lhumerus -30.5999 -4.46438 73.9199
lradius 28.9827
lwrist -0.084654
lhand -20.7525 -15.4554
lfingers 7.12502
lthumb 5.61328 14.4503
rfemur -11.0693 6.46948 -4.92707
rtibia 22.0435
rfoot -33.4547 -27.1466
rtoes -37.7085
lfemur -71.0749 1.80007 -1.01042
ltibia 53.9243
lfoot -3.97088 -9.98757
ltoes -22.7297
308
root 10.7527 15.3854 19.7671 -151.58 -18.8144 168.102
lowerback -15.6794 -0.131618 -5.97734
upperback 2.52839 1.18629 -2.51031
thorax 11.5841 0.215479 0.917334
lowerneck -2.33364 1.1285 0.493421
upperneck 13.5856 0.98678 0.195295
head 4.94296 0.329976 0.0117795
rclavicle -7.61345e-014 3.97569e-015
rhumerus -25.1909 -11.1787 -78.9742
rradius 42.5926
rwrist -6.01508
rhand -9.17449 -53.9165
rfingers 7.12502
rthumb 16.7785 -83.2115
lclavicle -7.61345e-014 3.97569e-015
lhumerus -29.6259 -4.99934 73.6487
lradius 28.7583
lwrist -0.626104
lhand -20.8631 -15.8999
lfingers 7.12502
lthumb 5.50652 14.0086
rfemur -10.7928 6.66739 -5.3063
rtibia 21.4092
rfoot -32.2331 -27.6951
rtoes -39.2484
lfemur -71.8653 1.80528 -1.5911
ltibia 54.966
lfoot -4.12659 -10.5496
ltoes -17.8401
309
root 10.6495 15.39 19.7417 -151.26 -18.8783 168.071
lowerback -15.218 -0.126245 -6.64673
upperback 2.63135 1.28853 -2.58457
thorax 11.416 0.220979 1.23324
lowerneck -2.53797 0.796046 0.574432
upperneck 13.4288 0.520931 0.423544
head 4.92496 0.124829 0.0530017
rclavicle 2.5842e-015 7.15625e-015
rhumerus -25.2407 -11.5991 -79.0948
rradius 43.3424
rwrist -6.68821
rhand -10.6805 -52.2083
rfingers 7.12502
rthumb 15.3283 -81.6202
lclavicle 2.5842e-015 7.15625e-015
lhumerus -28.522 -5.62316 73.3975
lradius 28.4318
lwrist -1.31908
lhand -21.1124 -16.1546
lfingers 7.12502
lthumb 5.2658 13.7599
rfemur -10.7721 6.87499 -5.64867
rtibia 21.3599
rfoot -31.6147 -28.018
rtoes -39.4877
lfemur -72.5295 1.70269 -2.08585
ltibia 55.9115
lfoot -4.56369 -11.1421
ltoes -13.0688
